<svg version="1.1" id="Layer_1" xmlns="http://www.w3.org/2000/svg" xmlns:xlink="http://www.w3.org/1999/xlink" x="0px" y="0px"
	 width="100%" viewBox="0 0 192 192" enable-background="new 0 0 192 192" xml:space="preserve">
<path fill="#219CEE" opacity="1.000000" stroke="none" 
	d="
M1.000001,184.000000 
	C1.000000,126.312439 1.000000,68.624878 1.236938,10.808113 
	C4.315917,7.452608 7.157959,4.226304 10.000000,1.000000 
	C67.354225,1.000000 124.708458,1.000000 182.191986,1.230880 
	C185.545166,4.751799 188.762299,8.048588 192.021210,11.303544 
	C192.133942,11.416145 192.664307,11.110631 193.000000,11.000002 
	C193.000000,68.354225 193.000000,125.708458 192.778091,183.192688 
	C189.704132,186.548477 186.852066,189.774246 184.000000,193.000000 
	C126.312439,193.000000 68.624878,193.000000 10.808105,192.763046 
	C7.452598,189.684067 4.226300,186.842026 1.000001,184.000000 
M96.693695,116.778084 
	C98.114616,117.305519 99.535545,117.832962 101.286606,118.482941 
	C101.286606,103.725883 101.286606,90.010887 101.286606,76.340355 
	C91.830894,75.385635 91.827827,75.384415 88.655693,83.365761 
	C86.568169,88.618134 84.516777,93.885071 82.394539,99.123337 
	C81.707062,100.820244 80.846100,102.446861 79.623978,105.040497 
	C76.389381,96.741722 73.271355,89.735771 70.956505,82.473793 
	C69.248642,77.115982 66.356804,74.851707 60.857113,75.978210 
	C60.084122,76.136543 59.284431,76.164490 58.315147,76.273201 
	C58.315147,90.276939 58.315147,104.001060 58.315147,117.663071 
	C61.763275,118.842758 63.124538,117.929611 63.069527,114.379768 
	C62.922543,104.895279 63.010021,95.406952 63.035698,85.920242 
	C63.039211,84.621689 63.221420,83.323616 63.320896,82.025322 
	C63.790592,81.978699 64.260292,81.932068 64.729988,81.885445 
	C65.473900,83.476784 66.283218,85.041222 66.950485,86.664078 
	C69.984787,94.043793 72.863899,101.490974 76.094589,108.782860 
	C76.672104,110.086357 78.649956,111.533127 79.972542,111.524857 
	C81.257050,111.516823 83.131142,109.986687 83.708931,108.669800 
	C86.913628,101.365715 89.784393,93.915611 92.812866,86.533302 
	C93.452370,84.974419 94.272743,83.489746 95.009781,81.970886 
	C95.543213,82.089088 96.076653,82.207291 96.610085,82.325493 
	C96.610085,93.513725 96.610085,104.701965 96.693695,116.778084 
M129.145569,82.135048 
	C128.712357,80.704147 128.595474,79.034393 127.750076,77.914719 
	C127.017700,76.944740 125.443497,76.077309 124.269791,76.112488 
	C122.892776,76.153755 120.660797,76.910919 120.320641,77.887428 
	C115.746376,91.018852 111.437637,104.242775 107.040520,117.511749 
	C110.686432,118.968529 112.899948,118.186836 113.351852,114.441170 
	C114.056061,108.604156 117.346786,106.588692 122.908539,107.585831 
	C123.713554,107.730156 124.586716,107.723709 125.394386,107.586754 
	C130.730804,106.681900 133.879456,108.652977 134.607620,114.221359 
	C135.109070,118.056122 137.235840,119.136711 141.092453,117.400154 
	C137.157394,105.793716 133.274384,94.340805 129.145569,82.135048 
M17.431313,75.977135 
	C12.683548,75.977135 7.935783,75.977135 3.217339,75.977135 
	C3.217339,90.398079 3.217339,103.981651 3.217339,117.869583 
	C10.875229,117.869583 18.260937,117.869583 25.646645,117.869583 
	C25.931566,117.366982 26.216488,116.864388 26.501411,116.361786 
	C25.229029,115.465706 24.002455,113.885628 22.676006,113.796799 
	C17.961998,113.481087 13.213955,113.673538 8.444179,113.673538 
	C8.444179,108.533546 8.444179,104.315414 8.444179,99.759560 
	C12.158756,99.759560 15.491141,99.953003 18.780916,99.663025 
	C20.071712,99.549248 21.267084,98.352913 22.505915,97.649590 
	C21.326963,96.881340 20.197330,95.561150 18.959614,95.450554 
	C15.540447,95.145035 12.076129,95.344841 8.404932,95.344841 
	C8.404932,90.168823 8.404932,85.626503 8.404932,80.590416 
	C13.394614,80.590416 18.029329,80.506302 22.659328,80.617851 
	C26.167316,80.702377 26.356373,78.961685 25.510242,75.977135 
	C23.016603,75.977135 20.708776,75.977135 17.431313,75.977135 
M171.638824,78.144897 
	C171.638824,91.377754 171.638824,104.610611 171.638824,117.883476 
	C178.577972,117.883476 184.820999,117.883476 190.997772,117.883476 
	C192.062988,114.557220 191.046906,113.242004 187.805344,113.373466 
	C184.234177,113.518295 180.652603,113.406509 176.533112,113.406509 
	C176.533112,100.453354 176.533112,88.389366 176.533112,75.365463 
	C174.411972,76.208061 173.068222,76.741852 171.638824,78.144897 
M153.703186,118.190559 
	C157.803574,118.190559 161.903976,118.190559 165.820511,118.190559 
	C166.959808,114.565872 166.011963,113.217079 162.735153,113.368698 
	C159.176468,113.533363 155.604263,113.406044 151.486649,113.406044 
	C151.486649,100.407501 151.486649,88.353111 151.486649,75.910416 
	C149.510239,76.102242 148.140549,76.235184 146.505554,76.393875 
	C146.505554,89.434860 146.500168,102.066071 146.516190,114.697258 
	C146.517426,115.667458 146.669769,116.637451 146.801193,118.190369 
	C148.885422,118.190369 150.835449,118.190369 153.703186,118.190559 
M31.989634,101.972267 
	C38.563866,101.972267 45.138096,101.972267 51.712326,101.972267 
	C51.995956,101.524147 52.279587,101.076035 52.563217,100.627914 
	C51.455746,99.749031 50.385956,98.173561 49.234310,98.111267 
	C44.120853,97.834656 38.983021,98.049377 33.855873,97.968163 
	C31.241182,97.926758 30.747370,99.235680 31.989634,101.972267 
z"/>
<path fill="#000000" opacity="1.000000" stroke="none" 
	d="
M193.000000,10.513437 
	C192.664307,11.110631 192.133942,11.416145 192.021210,11.303544 
	C188.762299,8.048588 185.545166,4.751799 182.660645,1.230880 
	C186.252457,1.000000 189.504913,1.000000 193.000000,1.000000 
	C193.000000,4.006597 193.000000,7.016734 193.000000,10.513437 
z"/>
<path fill="#000000" opacity="1.000000" stroke="none" 
	d="
M184.491058,193.000000 
	C186.852066,189.774246 189.704132,186.548477 192.778091,183.661346 
	C193.000000,186.917358 193.000000,189.834702 193.000000,193.000000 
	C190.330002,193.000000 187.656052,193.000000 184.491058,193.000000 
z"/>
<path fill="#000000" opacity="1.000000" stroke="none" 
	d="
M9.508951,1.000000 
	C7.157959,4.226304 4.315917,7.452608 1.236938,10.339456 
	C1.000000,7.082645 1.000000,4.165290 1.000000,1.000000 
	C3.670005,1.000000 6.343954,1.000000 9.508951,1.000000 
z"/>
<path fill="#000000" opacity="1.000000" stroke="none" 
	d="
M1.000001,184.491058 
	C4.226300,186.842026 7.452598,189.684067 10.339448,192.763046 
	C7.082646,193.000000 4.165292,193.000000 1.000000,193.000000 
	C1.000000,190.330002 1.000000,187.656052 1.000001,184.491058 
z"/>
<path fill="#F0F8FE" opacity="1.000000" stroke="none" 
	d="
M96.651886,116.334137 
	C96.610085,104.701965 96.610085,93.513725 96.610085,82.325493 
	C96.076653,82.207291 95.543213,82.089088 95.009781,81.970886 
	C94.272743,83.489746 93.452370,84.974419 92.812866,86.533302 
	C89.784393,93.915611 86.913628,101.365715 83.708931,108.669800 
	C83.131142,109.986687 81.257050,111.516823 79.972542,111.524857 
	C78.649956,111.533127 76.672104,110.086357 76.094589,108.782860 
	C72.863899,101.490974 69.984787,94.043793 66.950485,86.664078 
	C66.283218,85.041222 65.473900,83.476784 64.729988,81.885445 
	C64.260292,81.932068 63.790592,81.978699 63.320896,82.025322 
	C63.221420,83.323616 63.039211,84.621689 63.035698,85.920242 
	C63.010021,95.406952 62.922543,104.895279 63.069527,114.379768 
	C63.124538,117.929611 61.763275,118.842758 58.315147,117.663071 
	C58.315147,104.001060 58.315147,90.276939 58.315147,76.273201 
	C59.284431,76.164490 60.084122,76.136543 60.857113,75.978210 
	C66.356804,74.851707 69.248642,77.115982 70.956505,82.473793 
	C73.271355,89.735771 76.389381,96.741722 79.623978,105.040497 
	C80.846100,102.446861 81.707062,100.820244 82.394539,99.123337 
	C84.516777,93.885071 86.568169,88.618134 88.655693,83.365761 
	C91.827827,75.384415 91.830894,75.385635 101.286606,76.340355 
	C101.286606,90.010887 101.286606,103.725883 101.286606,118.482941 
	C99.535545,117.832962 98.114616,117.305519 96.651886,116.334137 
z"/>
<path fill="#EDF7FE" opacity="1.000000" stroke="none" 
	d="
M129.268478,82.511475 
	C133.274384,94.340805 137.157394,105.793716 141.092453,117.400154 
	C137.235840,119.136711 135.109070,118.056122 134.607620,114.221359 
	C133.879456,108.652977 130.730804,106.681900 125.394386,107.586754 
	C124.586716,107.723709 123.713554,107.730156 122.908539,107.585831 
	C117.346786,106.588692 114.056061,108.604156 113.351852,114.441170 
	C112.899948,118.186836 110.686432,118.968529 107.040520,117.511749 
	C111.437637,104.242775 115.746376,91.018852 120.320641,77.887428 
	C120.660797,76.910919 122.892776,76.153755 124.269791,76.112488 
	C125.443497,76.077309 127.017700,76.944740 127.750076,77.914719 
	C128.595474,79.034393 128.712357,80.704147 129.268478,82.511475 
M127.072922,91.475342 
	C126.189484,88.974579 125.306046,86.473816 124.422600,83.973053 
	C124.082329,84.043045 123.742050,84.113037 123.401772,84.183029 
	C121.384361,90.328728 119.366951,96.474426 117.232735,102.975952 
	C122.257828,102.975952 126.313293,102.975952 130.414642,102.975952 
	C130.414642,102.316429 130.495544,101.967873 130.402191,101.674843 
	C129.395935,98.516640 128.362259,95.367180 127.072922,91.475342 
z"/>
<path fill="#EFF8FE" opacity="1.000000" stroke="none" 
	d="
M17.916130,75.977135 
	C20.708776,75.977135 23.016603,75.977135 25.510242,75.977135 
	C26.356373,78.961685 26.167316,80.702377 22.659328,80.617851 
	C18.029329,80.506302 13.394614,80.590416 8.404932,80.590416 
	C8.404932,85.626503 8.404932,90.168823 8.404932,95.344841 
	C12.076129,95.344841 15.540447,95.145035 18.959614,95.450554 
	C20.197330,95.561150 21.326963,96.881340 22.505913,97.649590 
	C21.267084,98.352913 20.071712,99.549248 18.780916,99.663025 
	C15.491141,99.953003 12.158756,99.759560 8.444179,99.759560 
	C8.444179,104.315414 8.444179,108.533546 8.444179,113.673538 
	C13.213955,113.673538 17.961998,113.481087 22.676006,113.796799 
	C24.002455,113.885628 25.229029,115.465706 26.501411,116.361786 
	C26.216488,116.864388 25.931566,117.366982 25.646645,117.869583 
	C18.260937,117.869583 10.875229,117.869583 3.217339,117.869583 
	C3.217339,103.981651 3.217339,90.398079 3.217339,75.977135 
	C7.935783,75.977135 12.683548,75.977135 17.916130,75.977135 
z"/>
<path fill="#ECF6FE" opacity="1.000000" stroke="none" 
	d="
M171.681641,77.710266 
	C173.068222,76.741852 174.411972,76.208061 176.533112,75.365463 
	C176.533112,88.389366 176.533112,100.453354 176.533112,113.406509 
	C180.652603,113.406509 184.234177,113.518295 187.805344,113.373466 
	C191.046906,113.242004 192.062988,114.557220 190.997772,117.883476 
	C184.820999,117.883476 178.577972,117.883476 171.638824,117.883476 
	C171.638824,104.610611 171.638824,91.377754 171.681641,77.710266 
z"/>
<path fill="#ECF6FE" opacity="1.000000" stroke="none" 
	d="
M153.244324,118.190460 
	C150.835449,118.190369 148.885422,118.190369 146.801193,118.190369 
	C146.669769,116.637451 146.517426,115.667458 146.516190,114.697258 
	C146.500168,102.066071 146.505554,89.434860 146.505554,76.393875 
	C148.140549,76.235184 149.510239,76.102242 151.486649,75.910416 
	C151.486649,88.353111 151.486649,100.407501 151.486649,113.406044 
	C155.604263,113.406044 159.176468,113.533363 162.735153,113.368698 
	C166.011963,113.217079 166.959808,114.565872 165.820511,118.190559 
	C161.903976,118.190559 157.803574,118.190559 153.244324,118.190460 
z"/>
<path fill="#F6FBFE" opacity="1.000000" stroke="none" 
	d="
M31.626461,101.697098 
	C30.747370,99.235680 31.241182,97.926758 33.855873,97.968163 
	C38.983021,98.049377 44.120853,97.834656 49.234310,98.111267 
	C50.385956,98.173561 51.455746,99.749031 52.563217,100.627914 
	C52.279587,101.076035 51.995956,101.524147 51.712326,101.972267 
	C45.138096,101.972267 38.563866,101.972267 31.626461,101.697098 
z"/>
<path fill="#29A0EF" opacity="1.000000" stroke="none" 
	d="
M127.204498,91.845337 
	C128.362259,95.367180 129.395935,98.516640 130.402191,101.674843 
	C130.495544,101.967873 130.414642,102.316429 130.414642,102.975952 
	C126.313293,102.975952 122.257828,102.975952 117.232735,102.975952 
	C119.366951,96.474426 121.384361,90.328728 123.401772,84.183029 
	C123.742050,84.113037 124.082329,84.043045 124.422600,83.973053 
	C125.306046,86.473816 126.189484,88.974579 127.204498,91.845337 
z"/>
</svg>